<svg id="Capa_1" data-name="Capa 1" xmlns="http://www.w3.org/2000/svg" viewBox="0 0 20 20"><defs><style>.cls-1{fill:none;stroke:#000;stroke-linecap:round;stroke-miterlimit:10;}</style></defs><path class="cls-1" d="M16.77,16.94a8.78,8.78,0,1,0-13.61-.08Z"/><path d="M13.2,17.39a3.42,3.42,0,0,0,.13-1,3.33,3.33,0,1,0-6.66,0,3.52,3.52,0,0,0,.14,1Z"/><circle cx="10" cy="5.23" r="0.99"/><circle cx="14.11" cy="6.99" r="0.99"/><circle cx="16.05" cy="10.31" r="0.99"/><circle cx="3.87" cy="10.31" r="0.99"/><circle cx="5.77" cy="6.99" r="0.99"/><path d="M10.81,7.12h0a.79.79,0,0,0-.89.66L8.81,13.57l2.25.3L11.47,8A.79.79,0,0,0,10.81,7.12Z"/></svg>