<svg id="Capa_1" data-name="Capa 1" xmlns="http://www.w3.org/2000/svg" viewBox="0 0 20 20"><defs><style>.cls-1{fill:none;stroke:#000;stroke-linecap:round;stroke-miterlimit:10;fill-rule:evenodd;}.cls-2{fill:#101010;}</style></defs><path class="cls-1" d="M4.84,10.91,8.15,7.68a.37.37,0,0,1,.54,0l2.93,2.92a.39.39,0,0,0,.47.06l5.57-3.35"/><polyline class="cls-1" points="2.76 2.46 2.85 17.89 18.01 17.89"/><path class="cls-2" d="M16.94,10.2h0A1.07,1.07,0,0,1,18,11.26v6.49a0,0,0,0,1,0,0H15.88a0,0,0,0,1,0,0V11.26a1.07,1.07,0,0,1,1.07-1.07Z"/><path class="cls-2" d="M13.12,13.14h0a1.07,1.07,0,0,1,1.07,1.07v3.55a0,0,0,0,1,0,0H12.05a0,0,0,0,1,0,0V14.2A1.07,1.07,0,0,1,13.12,13.14Z"/><path class="cls-2" d="M5.47,12.93h0A1.07,1.07,0,0,1,6.54,14v3.76a0,0,0,0,1,0,0H4.41a0,0,0,0,1,0,0V14A1.07,1.07,0,0,1,5.47,12.93Z"/><path class="cls-2" d="M9.3,11.25h0a1.07,1.07,0,0,1,1.07,1.07v5.44a0,0,0,0,1,0,0H8.23a0,0,0,0,1,0,0V12.32A1.07,1.07,0,0,1,9.3,11.25Z"/></svg>