<svg id="Capa_1" data-name="Capa 1" xmlns="http://www.w3.org/2000/svg" viewBox="0 0 20 20"><defs><style>.cls-1{fill:none;stroke:#000;stroke-miterlimit:10;}</style></defs><g id="gear"><path class="cls-1" d="M18.44,8.57a1.11,1.11,0,0,0-1.1-.92,1.13,1.13,0,0,1-.79-2,1,1,0,0,0,.12-1.41,8.56,8.56,0,0,0-1.34-1.35,1,1,0,0,0-.65-.23,1.08,1.08,0,0,0-.77.34A1.18,1.18,0,0,1,13,3.4a1.07,1.07,0,0,1-.41-.08,1.13,1.13,0,0,1-.69-1.12A1,1,0,0,0,11,1.12a8.05,8.05,0,0,0-1.9,0A1,1,0,0,0,8.2,2.18a1.14,1.14,0,0,1-.7,1.1A1.22,1.22,0,0,1,6.22,3a1,1,0,0,0-.76-.33,1,1,0,0,0-.64.22A8,8,0,0,0,3.45,4.22a1,1,0,0,0,.12,1.41,1.15,1.15,0,0,1,.28,1.29,1.2,1.2,0,0,1-1.15.69,1,1,0,0,0-1.05.92,8.22,8.22,0,0,0,0,1.92,1.11,1.11,0,0,0,1.11.92h0a1.14,1.14,0,0,1,.73,2,1,1,0,0,0-.12,1.4A8.21,8.21,0,0,0,4.75,16.1a1,1,0,0,0,.65.23A1.08,1.08,0,0,0,6.17,16a1.19,1.19,0,0,1,.88-.37,1.06,1.06,0,0,1,.4.08,1.15,1.15,0,0,1,.7,1.11,1,1,0,0,0,.91,1.09A7.89,7.89,0,0,0,10,18c.31,0,.62,0,.93-.05a1,1,0,0,0,.92-1.07,1.15,1.15,0,0,1,.7-1.1,1.05,1.05,0,0,1,.4-.07,1.24,1.24,0,0,1,.88.36,1,1,0,0,0,.76.34,1.05,1.05,0,0,0,.64-.22,8.34,8.34,0,0,0,1.37-1.35,1,1,0,0,0-.11-1.42,1.13,1.13,0,0,1-.29-1.28,1.17,1.17,0,0,1,1.05-.7h.13a1,1,0,0,0,1-.92A8.22,8.22,0,0,0,18.44,8.57Z"/></g><circle class="cls-1" cx="10.04" cy="9.51" r="2.92"/></svg>