<svg id="Capa_1" data-name="Capa 1" xmlns="http://www.w3.org/2000/svg" viewBox="0 0 20 20"><defs><style>.cls-1{fill:none;stroke:#000;stroke-linecap:round;stroke-miterlimit:10;}</style></defs><path class="cls-1" d="M17.18,13.06a3.84,3.84,0,0,0,1.69-3.18,3.88,3.88,0,0,0-4.15-3.81,5.24,5.24,0,0,0-1.42-3,4.48,4.48,0,0,0-3.08-1.23c-2.42,0-4,1.8-4.48,4A6.85,6.85,0,0,0,5,5.78a3.83,3.83,0,0,0-2.14,7"/><line class="cls-1" x1="9.98" y1="8.94" x2="9.98" y2="18.14"/><path class="cls-1" d="M6.24,13,9.7,8.49a.28.28,0,0,1,.45,0L13.85,13"/></svg>